REM DIRINDEX 1\4,1\5,1\2\6,1\2\7,1\3\8,1\3\9
REM DIRNAME folder01,folder02,folder03,folder04,folder05,folder06,folder07,folder08,folder09
TITLE ""
FILE "Disk3Track56.mp3" MP3
  TRACK 01 AUDIO
    TITLE "4:cjc068_660"
    INDEX 01 00:00:00
  TRACK 02 AUDIO
    TITLE "4:cjc068_661"
    INDEX 01 00:02:51
  TRACK 03 AUDIO
    TITLE "4:cjc068_662"
    INDEX 01 00:04:05
  TRACK 04 AUDIO
    TITLE "0:"
    INDEX 01 00:05:52
